<svg width="54" height="54" viewBox="0 0 54 54" fill="none" xmlns="http://www.w3.org/2000/svg">
<rect x="7.62939e-06" width="54" height="54" rx="7" fill="white"/>
<g clip-path="url(#clip0_3014_81)">
<path d="M13.0875 19.2213C13.2639 18.4482 13.6977 17.7579 14.3176 17.2635C14.9376 16.7692 15.7071 16.4999 16.5 16.5H37.5C38.293 16.4999 39.0624 16.7692 39.6824 17.2635C40.3024 17.7579 40.7361 18.4482 40.9125 19.2213L27 27.7245L13.0875 19.2213ZM13 21.2197V33.6517L23.1553 27.4253L13 21.2197ZM24.8318 28.4525L13.3343 35.4998C13.6183 36.0987 14.0667 36.6047 14.6271 36.9589C15.1876 37.313 15.8371 37.5006 16.5 37.5H37.5C38.1628 37.5001 38.8121 37.3121 39.3722 36.9577C39.9323 36.6032 40.3803 36.0971 40.664 35.498L29.1665 28.4508L27 29.7755L24.8318 28.4508V28.4525ZM30.8448 27.427L41 33.6517V21.2197L30.8448 27.4253V27.427Z" fill="#1A73E8"/>
</g>
<defs>
<clipPath id="clip0_3014_81">
<rect width="28" height="28" fill="white" transform="translate(13 13)"/>
</clipPath>
</defs>
</svg>
